<mxfile host="65bd71144e">
    <diagram id="qSztvD9odWuxIloCTG1u" name="Страница 1">
        <mxGraphModel dx="1204" dy="1718" grid="1" gridSize="10" guides="1" tooltips="1" connect="1" arrows="1" fold="1" page="1" pageScale="1" pageWidth="827" pageHeight="1169" math="0" shadow="0">
            <root>
                <mxCell id="0"/>
                <mxCell id="1" parent="0"/>
                <mxCell id="7" style="edgeStyle=none;html=1;entryX=0.5;entryY=1;entryDx=0;entryDy=0;" edge="1" parent="1" source="2" target="5">
                    <mxGeometry relative="1" as="geometry"/>
                </mxCell>
                <mxCell id="2" value="&lt;div style=&quot;color: rgb(171 , 178 , 191) ; background-color: rgb(40 , 44 , 52) ; font-family: , &amp;#34;consolas&amp;#34; , &amp;#34;courier new&amp;#34; , monospace ; font-size: 18px ; line-height: 24px&quot;&gt;&lt;div&gt;&lt;span style=&quot;color: #c678dd&quot;&gt;class&lt;/span&gt; &lt;span style=&quot;color: #e5c07b&quot;&gt;Robot&lt;/span&gt; {&lt;/div&gt;&lt;div&gt;&amp;nbsp; &lt;span style=&quot;color: #c678dd&quot;&gt;private&lt;/span&gt; defConfig&lt;span style=&quot;color: #56b6c2&quot;&gt;:&lt;/span&gt; &lt;span style=&quot;color: #56b6c2&quot;&gt;object&lt;/span&gt; &lt;span style=&quot;color: #56b6c2&quot;&gt;=&lt;/span&gt; {};&lt;/div&gt;&lt;br&gt;&lt;div&gt;&amp;nbsp; &lt;span style=&quot;color: #c678dd&quot;&gt;constructor&lt;/span&gt;(&lt;span style=&quot;color: #c678dd&quot;&gt;public&lt;/span&gt; height&lt;span style=&quot;color: #56b6c2&quot;&gt;:&lt;/span&gt; &lt;span style=&quot;color: #56b6c2&quot;&gt;number&lt;/span&gt;, &lt;span style=&quot;color: #c678dd&quot;&gt;public&lt;/span&gt; width&lt;span style=&quot;color: #56b6c2&quot;&gt;:&lt;/span&gt; &lt;span style=&quot;color: #56b6c2&quot;&gt;number&lt;/span&gt;, &lt;span style=&quot;color: #c678dd&quot;&gt;public&lt;/span&gt; color&lt;span style=&quot;color: #56b6c2&quot;&gt;:&lt;/span&gt; &lt;span style=&quot;color: #56b6c2&quot;&gt;string&lt;/span&gt;, &lt;span style=&quot;color: #c678dd&quot;&gt;public&lt;/span&gt; price&lt;span style=&quot;color: #56b6c2&quot;&gt;:&lt;/span&gt; &lt;span style=&quot;color: #56b6c2&quot;&gt;number&lt;/span&gt;) {&lt;/div&gt;&lt;div&gt;&amp;nbsp; &amp;nbsp; &lt;span style=&quot;color: #5c6370 ; font-style: italic&quot;&gt;// this.height = height&lt;/span&gt;&lt;/div&gt;&lt;div&gt;&amp;nbsp; }&lt;/div&gt;&lt;br&gt;&lt;div&gt;&amp;nbsp; &lt;span style=&quot;color: #c678dd&quot;&gt;public&lt;/span&gt; &lt;span style=&quot;color: #61afef&quot;&gt;clone&lt;/span&gt;()&lt;span style=&quot;color: #56b6c2&quot;&gt;:&lt;/span&gt; &lt;span style=&quot;color: #e5c07b&quot;&gt;Robot&lt;/span&gt; {&lt;/div&gt;&lt;div&gt;&amp;nbsp; &amp;nbsp; &lt;span style=&quot;color: #c678dd&quot;&gt;return&lt;/span&gt; &lt;span style=&quot;color: #c678dd&quot;&gt;new&lt;/span&gt; &lt;span style=&quot;color: #61afef&quot;&gt;Robot&lt;/span&gt;(&lt;span style=&quot;color: #e06c75&quot;&gt;this&lt;/span&gt;.&lt;span style=&quot;color: #e06c75&quot;&gt;height&lt;/span&gt;, &lt;span style=&quot;color: #e06c75&quot;&gt;this&lt;/span&gt;.&lt;span style=&quot;color: #e06c75&quot;&gt;width&lt;/span&gt;, &lt;span style=&quot;color: #e06c75&quot;&gt;this&lt;/span&gt;.&lt;span style=&quot;color: #e06c75&quot;&gt;color&lt;/span&gt;, &lt;span style=&quot;color: #e06c75&quot;&gt;this&lt;/span&gt;.&lt;span style=&quot;color: #e06c75&quot;&gt;price&lt;/span&gt;);&lt;/div&gt;&lt;div&gt;&amp;nbsp; }&lt;/div&gt;&lt;div&gt;}&lt;/div&gt;&lt;/div&gt;" style="rounded=0;whiteSpace=wrap;html=1;" vertex="1" parent="1">
                    <mxGeometry x="110" y="-170" width="520" height="280" as="geometry"/>
                </mxCell>
                <mxCell id="4" style="edgeStyle=none;html=1;entryX=0.5;entryY=1;entryDx=0;entryDy=0;" edge="1" parent="1" source="3" target="2">
                    <mxGeometry relative="1" as="geometry"/>
                </mxCell>
                <mxCell id="3" value="&lt;div style=&quot;color: rgb(171 , 178 , 191) ; background-color: rgb(40 , 44 , 52) ; font-family: , &amp;#34;consolas&amp;#34; , &amp;#34;courier new&amp;#34; , monospace ; font-size: 18px ; line-height: 24px&quot;&gt;&lt;div&gt;&lt;span style=&quot;color: #c678dd&quot;&gt;const&lt;/span&gt; &lt;span style=&quot;color: #d19a66&quot;&gt;prototype&lt;/span&gt; &lt;span style=&quot;color: #56b6c2&quot;&gt;=&lt;/span&gt; &lt;span style=&quot;color: #c678dd&quot;&gt;new&lt;/span&gt; &lt;span style=&quot;color: #61afef&quot;&gt;Robot&lt;/span&gt;(&lt;span style=&quot;color: #d19a66&quot;&gt;150&lt;/span&gt;, &lt;span style=&quot;color: #d19a66&quot;&gt;70&lt;/span&gt;, &lt;span style=&quot;color: #98c379&quot;&gt;&quot;grey&quot;&lt;/span&gt;, &lt;span style=&quot;color: #d19a66&quot;&gt;1500&lt;/span&gt;);&lt;/div&gt;&lt;br&gt;&lt;div&gt;&lt;span style=&quot;color: #c678dd&quot;&gt;const&lt;/span&gt; &lt;span style=&quot;color: #d19a66&quot;&gt;robot1&lt;/span&gt; &lt;span style=&quot;color: #56b6c2&quot;&gt;=&lt;/span&gt; prototype.&lt;span style=&quot;color: #61afef&quot;&gt;clone&lt;/span&gt;();&lt;/div&gt;&lt;br&gt;&lt;/div&gt;" style="rounded=0;whiteSpace=wrap;html=1;" vertex="1" parent="1">
                    <mxGeometry x="110" y="200" width="520" height="170" as="geometry"/>
                </mxCell>
                <mxCell id="6" style="edgeStyle=none;html=1;" edge="1" parent="1" source="5">
                    <mxGeometry relative="1" as="geometry">
                        <mxPoint x="390" y="-240" as="targetPoint"/>
                    </mxGeometry>
                </mxCell>
                <mxCell id="5" value="&lt;div style=&quot;color: rgb(171 , 178 , 191) ; background-color: rgb(40 , 44 , 52) ; font-family: , &amp;#34;consolas&amp;#34; , &amp;#34;courier new&amp;#34; , monospace ; font-size: 18px ; line-height: 24px&quot;&gt;&lt;div&gt;&lt;span style=&quot;color: #c678dd&quot;&gt;interface&lt;/span&gt; &lt;span style=&quot;color: #e5c07b&quot;&gt;Clonable&lt;/span&gt; {&lt;/div&gt;&lt;div&gt;&amp;nbsp; &lt;span style=&quot;color: #61afef&quot;&gt;clone&lt;/span&gt;()&lt;span style=&quot;color: #56b6c2&quot;&gt;:&lt;/span&gt; &lt;span style=&quot;color: #e5c07b&quot;&gt;Clonable&lt;/span&gt;;&lt;/div&gt;&lt;div&gt;}&lt;/div&gt;&lt;br&gt;&lt;/div&gt;" style="rounded=0;whiteSpace=wrap;html=1;" vertex="1" parent="1">
                    <mxGeometry x="270" y="-330" width="200" height="80" as="geometry"/>
                </mxCell>
            </root>
        </mxGraphModel>
    </diagram>
</mxfile>